<svg xmlns="http://www.w3.org/2000/svg" version="1.1" xmlns:xlink="http://www.w3.org/1999/xlink" xmlns:svgjs="http://svgjs.dev/svgjs" viewBox="0 0 800 800"><g transform="matrix(0.7071067811865476,-0.7071067811865475,0.7071067811865475,0.7071067811865476,-396.68542494923804,172.99999999999994)"><circle r="50" cx="684" cy="684" stroke-width="4" stroke="#bb53d0" fill="none" opacity="0.1" transform="rotate(100, 376, 584)"></circle><circle r="58.333333333333336" cx="660.3333333333334" cy="660.3333333333334" stroke-width="5" stroke="#b351c8" fill="none" opacity="0.175" transform="rotate(91.66666666666667, 376, 584)"></circle><circle r="66.66666666666667" cx="636.6666666666666" cy="636.6666666666666" stroke-width="6" stroke="#ab4ec0" fill="none" opacity="0.25" transform="rotate(83.33333333333333, 376, 584)"></circle><circle r="75" cx="613" cy="613" stroke-width="7" stroke="#a34bb8" fill="none" opacity="0.32499999999999996" transform="rotate(75, 376, 584)"></circle><circle r="83.33333333333334" cx="589.3333333333334" cy="589.3333333333334" stroke-width="8" stroke="#9a49af" fill="none" opacity="0.4" transform="rotate(66.66666666666666, 376, 584)"></circle><circle r="91.66666666666667" cx="565.6666666666666" cy="565.6666666666666" stroke-width="9" stroke="#9046a6" fill="none" opacity="0.475" transform="rotate(58.33333333333333, 376, 584)"></circle><circle r="100" cx="542" cy="542" stroke-width="10" stroke="#86439d" fill="none" opacity="0.5499999999999999" transform="rotate(50, 376, 584)"></circle><circle r="108.33333333333334" cx="518.3333333333333" cy="518.3333333333333" stroke-width="11" stroke="#7b4092" fill="none" opacity="0.625" transform="rotate(41.666666666666664, 376, 584)"></circle><circle r="116.66666666666667" cx="494.66666666666663" cy="494.66666666666663" stroke-width="12" stroke="#6f3c87" fill="none" opacity="0.7" transform="rotate(33.33333333333333, 376, 584)"></circle><circle r="125" cx="471" cy="471" stroke-width="13" stroke="#62397b" fill="none" opacity="0.7749999999999999" transform="rotate(25, 376, 584)"></circle><circle r="133.33333333333334" cx="447.3333333333333" cy="447.3333333333333" stroke-width="14" stroke="#52356e" fill="none" opacity="0.85" transform="rotate(16.666666666666657, 376, 584)"></circle><circle r="141.66666666666669" cx="423.66666666666663" cy="423.66666666666663" stroke-width="15" stroke="#3e315e" fill="none" opacity="0.9249999999999999" transform="rotate(8.333333333333329, 376, 584)"></circle><circle r="150" cx="400" cy="400" stroke-width="16" stroke="#202d4c" fill="none" opacity="0.9999999999999999" transform="rotate(0, 376, 584)"></circle></g></svg>