<svg xmlns="http://www.w3.org/2000/svg" version="1.1" xmlns:xlink="http://www.w3.org/1999/xlink" xmlns:svgjs="http://svgjs.dev/svgjs" viewBox="0 0 2400 800" opacity="1"><g fill="#070c1eff" transform="matrix(1,0,0,1,2.0377197265625,281.08367919921875)"><path d="M-10,10C117.08333333333334,29.166666666666668,347.9166666666667,105.54166666666667,600,102C852.0833333333333,98.45833333333333,950,-9.083333333333334,1200,-7C1450,-4.916666666666666,1550,131.58333333333334,1800,112C2050,92.41666666666667,2222.9166666666665,-161,2400,-101C2577.0833333333335,-41,3254.1666666666665,191.45833333333331,2650,400C2045.8333333333335,608.5416666666667,156.25,795.8333333333334,-500,900" transform="matrix(1,0,0,1,0,62)" opacity="0.05"></path><path d="M-10,10C117.08333333333334,29.166666666666668,347.9166666666667,105.54166666666667,600,102C852.0833333333333,98.45833333333333,950,-9.083333333333334,1200,-7C1450,-4.916666666666666,1550,131.58333333333334,1800,112C2050,92.41666666666667,2222.9166666666665,-161,2400,-101C2577.0833333333335,-41,3254.1666666666665,191.45833333333331,2650,400C2045.8333333333335,608.5416666666667,156.25,795.8333333333334,-500,900" transform="matrix(1,0,0,1,0,124)" opacity="0.53"></path><path d="M-10,10C117.08333333333334,29.166666666666668,347.9166666666667,105.54166666666667,600,102C852.0833333333333,98.45833333333333,950,-9.083333333333334,1200,-7C1450,-4.916666666666666,1550,131.58333333333334,1800,112C2050,92.41666666666667,2222.9166666666665,-161,2400,-101C2577.0833333333335,-41,3254.1666666666665,191.45833333333331,2650,400C2045.8333333333335,608.5416666666667,156.25,795.8333333333334,-500,900" transform="matrix(1,0,0,1,0,186)" opacity="1.00"></path></g></svg>