<svg id="visual" viewBox="0 0 900 450" width="900" height="450" xmlns="http://www.w3.org/2000/svg" xmlns:xlink="http://www.w3.org/1999/xlink" version="1.1"><path d="M0 117L21.5 110.3C43 103.7 86 90.3 128.8 87.5C171.7 84.7 214.3 92.3 257.2 88.8C300 85.3 343 70.7 385.8 76.5C428.7 82.3 471.3 108.7 514.2 126.2C557 143.7 600 152.3 642.8 144.3C685.7 136.3 728.3 111.7 771.2 110.8C814 110 857 133 878.5 144.5L900 156L900 0L878.5 0C857 0 814 0 771.2 0C728.3 0 685.7 0 642.8 0C600 0 557 0 514.2 0C471.3 0 428.7 0 385.8 0C343 0 300 0 257.2 0C214.3 0 171.7 0 128.8 0C86 0 43 0 21.5 0L0 0Z" fill="#070c1e" stroke-linecap="round" stroke-linejoin="miter"></path></svg>